<svg width="16" height="16" viewBox="0 0 16 16" fill="none" xmlns="http://www.w3.org/2000/svg">
<g clip-path="url(#clip0_33_2184)">
<path d="M15.4301 5.6939L10.7094 5.0079L8.60076 0.733237C8.53945 0.629142 8.45204 0.542853 8.34716 0.482903C8.24228 0.422953 8.12356 0.391418 8.00276 0.391418C7.88195 0.391418 7.76324 0.422953 7.65836 0.482903C7.55348 0.542853 7.46606 0.629142 7.40476 0.733237L5.29209 5.0079L0.571426 5.6939C0.448319 5.71167 0.332639 5.76353 0.237463 5.84361C0.142287 5.92368 0.0714116 6.02879 0.0328492 6.14704C-0.00571322 6.2653 -0.0104244 6.39198 0.0192482 6.51277C0.0489209 6.63356 0.111794 6.74365 0.200759 6.83057L3.61743 10.1599L2.81143 14.8619C2.79042 14.9845 2.80413 15.1105 2.85101 15.2258C2.89789 15.341 2.97607 15.4408 3.07671 15.5139C3.17735 15.587 3.29643 15.6305 3.4205 15.6394C3.54456 15.6484 3.66866 15.6225 3.77876 15.5646L8.00076 13.3452L12.2228 15.5646C12.3329 15.6225 12.457 15.6484 12.581 15.6394C12.7051 15.6305 12.8242 15.587 12.9248 15.5139C13.0254 15.4408 13.1036 15.341 13.1505 15.2258C13.1974 15.1105 13.2111 14.9845 13.1901 14.8619L12.3841 10.1599L15.8008 6.83057C15.8897 6.74373 15.9526 6.63376 15.9823 6.51306C16.0121 6.39237 16.0075 6.26577 15.9691 6.14755C15.9306 6.02933 15.8599 5.9242 15.7649 5.84404C15.6699 5.76388 15.5544 5.71188 15.4314 5.6939H15.4301Z" fill="#FCD420"/>
</g>
<defs>
<clipPath id="clip0_33_2184">
<rect width="16" height="16" fill="white"/>
</clipPath>
</defs>
</svg>
